<?xml version="1.0" encoding="UTF-8"?><svg id="b" xmlns="http://www.w3.org/2000/svg" width="1890.692" height="410.616" xmlns:xlink="http://www.w3.org/1999/xlink" viewBox="0 0 1890.692 410.616"><defs><linearGradient id="e" x1="-72.906" y1="321.378" x2="257.988" y2="68.612" gradientUnits="userSpaceOnUse"><stop offset="0" stop-color="#00d4ff"/><stop offset="1" stop-color="#9333ea"/></linearGradient><linearGradient id="f" x1="-26.811" y1="381.72" x2="304.083" y2="128.954" xlink:href="#e"/><linearGradient id="g" x1="19.618" y1="442.5" x2="350.512" y2="189.734" xlink:href="#e"/><linearGradient id="h" x1="66.046" y1="503.278" x2="396.939" y2="250.512" xlink:href="#e"/></defs><g id="c"><g><path d="m1737.524,169.123c14.939,0,28.668,0,42.397,0,8.222,0,16.447-.131,24.665.049,3.933.086,5.513-1.422,5.995-5.358,5.707-46.522,11.707-93.009,17.292-139.545,2.288-19.065,1.918-19.11,21.348-19.11,10.882,0,21.765-.061,32.647.023,7.956.062,9.513,1.553,8.583,9.51-3.534,30.236-7.271,60.449-10.969,90.666-6.047,49.402-12.105,98.802-18.192,148.198-5.2,42.203-10.538,84.39-15.58,126.612-.807,6.763-4.146,9.134-10.501,9.071-13.541-.135-27.084-.021-40.627-.046-10.222-.019-11.31-1.07-10.056-11.515,3.485-29.026,7.159-58.029,10.768-87.039,2.505-20.139,4.983-40.282,7.575-60.41.517-4.011-.796-5.969-4.964-5.963-20.797.033-41.595.093-62.392-.046-4.804-.032-5.476,2.989-5.91,6.524-2.531,20.624-5.051,41.249-7.567,61.874-3.51,28.779-6.963,57.566-10.55,86.336-1.043,8.361-3.321,10.206-11.84,10.233-13.542.044-27.085.052-40.627-.002-9.226-.037-10.598-1.35-9.499-10.82,2.95-25.439,6.175-50.847,9.298-76.267,6.069-49.399,12.13-98.799,18.219-148.195,5.734-46.52,11.546-93.03,17.194-139.559.798-6.574,4.207-9.252,10.58-9.21,14.267.094,28.536-.031,42.804.049,8.145.046,9.484,1.904,8.443,10.213-6.005,47.946-11.958,95.899-17.892,143.855-.351,2.837-.381,5.714-.642,9.872Z" fill="#fff"/><path d="m1266.637,389.2c-27.087,0-54.174.01-81.262-.004-10.749-.006-11.924-1.181-10.649-11.609,9.092-74.35,18.265-148.69,27.368-223.039,5.55-45.329,11.052-90.665,16.512-136.005,1.431-11.88,2.975-13.381,15.006-13.382,53.691-.004,107.382-.008,161.072.004,10.591.002,11.652,1.408,10.255,11.968-1.394,10.539-2.534,21.112-3.715,31.678-1.009,9.027-3.353,11.235-12.462,11.241-34.343.02-68.688.209-103.027-.152-7.38-.077-10.363,1.477-11.227,9.567-3.284,30.747-7.308,61.422-11.571,92.052-.942,6.766,1.407,7.761,7.178,7.693,19.587-.231,39.179-.118,58.769-.074,9.186.021,10.379,1.582,9.102,10.844-1.617,11.728-3.383,23.446-4.555,35.221-.665,6.687-3.712,9.21-10.295,9.138-19.346-.211-38.702.216-58.04-.224-7.16-.163-9.998,1.527-10.84,9.314-3.375,31.224-7.467,62.375-11.712,93.496-.855,6.267,1.207,7.483,6.811,7.457,35.068-.162,70.136-.089,105.205-.077,10.099.004,11.21,1.46,9.876,11.606-1.417,10.779-2.612,21.588-3.851,32.391-1.007,8.779-3.197,10.875-11.961,10.885-27.329.033-54.658.012-81.987.012Z" fill="#fff"/><path d="m1601.313,117.966c-7.241.412-14.477.957-21.723,1.197-7.295.242-8.966-1.764-8.269-9.097.661-6.958,1.897-13.939,1.733-20.882-.324-13.706-5.211-25.249-19.039-30.508-14.707-5.593-28.583-3.568-40.756,6.674-10.967,9.227-15.815,21.777-17.519,35.548-7.978,64.489-15.784,129-23.632,193.506-2.741,22.532,4.408,36.83,21.187,42.525,17.562,5.961,39.036-2.053,48.049-20.052,4.94-9.864,6.715-21.427,9.147-32.395,1.776-8.008,3.11-9.865,11.357-9.554,14.012.529,28.024,1.099,42.023,1.887,8.224.463,9.424,2.493,8.347,10.543-2.653,19.823-7.315,39.029-18.717,55.784-25.624,37.658-61.854,53.13-106.663,49.654-32.758-2.541-57.44-17.449-70.705-48.37-7.651-17.834-7.82-36.746-5.53-55.65,7.437-61.391,15.08-122.758,22.641-184.135,5.077-41.217,23.09-74.193,61.677-92.747,29.113-13.999,59.756-15.796,90.15-4.57,29.39,10.856,45.912,33.173,49.48,64.045,1.421,12.293-.371,24.974-.914,37.469-.243,5.581-3.743,7.942-9.135,8.167-7.728.322-15.448.843-23.171,1.279-.006-.107-.012-.213-.019-.32Z" fill="#fff"/><path d="m1071.528,5.16c31.441,0,62.881-.014,94.322.008,10.012.007,11.22,1.61,9.897,11.681-1.417,10.78-2.591,21.591-3.833,32.393-.987,8.585-3.369,10.791-12.115,10.807-19.348.035-38.701.259-58.041-.131-6.249-.126-8.492,2.125-9.187,8.052-4.839,41.278-9.881,82.532-14.9,123.788-6.039,49.651-12.117,99.298-18.185,148.946-1.612,13.192-3.347,26.369-4.836,39.575-.689,6.114-3.671,9.017-9.936,8.96-14.752-.134-29.506-.103-44.258-.017-6.387.037-8.444-2.828-7.659-9.107,10.846-86.793,21.575-173.601,32.304-260.409,2.164-17.506,4.073-35.044,6.393-52.528.722-5.439-.806-7.305-6.427-7.221-18.377.276-36.76.135-55.14.089-9.086-.023-10.515-1.806-9.371-10.932,1.382-11.028,2.731-22.061,3.997-33.104,1.016-8.866,3.027-10.829,11.929-10.837,31.682-.03,63.365-.012,95.047-.012Z" fill="#fff"/><path d="m671.116,389.194c-7.251.001-14.505.111-21.753-.029-7.23-.14-9.079-2.186-8.2-9.412,3.964-32.602,8.056-65.188,12.074-97.784,6.057-49.133,12.103-98.268,18.13-147.405,4.909-40.028,9.792-80.06,14.661-120.094.767-6.306,4.07-9.401,10.58-9.345,14.502.125,29.007.184,43.507-.025,6.912-.1,8.893,3.118,8.092,9.489-4.128,32.825-8.142,65.665-12.183,98.501-6.076,49.374-12.151,98.748-18.209,148.124-4.881,39.788-9.719,79.582-14.621,119.368-.684,5.548-3.61,8.734-9.597,8.639-7.491-.118-14.986-.028-22.479-.027Z" fill="#fff"/><path d="m834.707,251.353c-20.764,0-41.527.04-62.29-.019-8.283-.024-9.674-1.776-8.7-9.953,1.341-11.259,2.475-22.543,3.912-33.789,1.176-9.197,3.48-11.129,12.562-11.132,40.803-.014,81.605-.015,122.408,0,8.861.003,10.421,1.581,9.487,10.115-1.313,11.989-2.856,23.952-4.271,35.93-.763,6.457-4.379,8.975-10.818,8.917-20.762-.188-41.526-.07-62.29-.07Z" fill="#fff"/></g><line x1="692.749" y1="82.403" x2="692.749" y2="82.403" fill="none"/></g><g id="d"><g><path d="m253.225,119.529c1.387,2.111,3.743,3.382,6.268,3.382s4.882-1.271,6.269-3.382l31.496-47.945c.803-1.223,1.231-2.66,1.231-4.123s-.428-2.895-1.231-4.118l-31.496-47.945c-1.387-2.111-3.743-3.382-6.268-3.382h0c-2.525,0-4.881,1.271-6.268,3.382l-31.502,47.945c-1.643,2.5-1.643,5.736,0,8.236l31.502,47.951Z" fill="url(#e)"/><path d="m234.259,159.244l-31.496-47.951c-1.387-2.111-3.743-3.382-6.269-3.382s-4.882,1.271-6.269,3.382l-31.337,47.709c-.056.079-.111.16-.165.241l-62.839,95.669c-.054.077-.107.154-.159.233l-31.496,47.951-31.337,47.709c-.057.08-.112.16-.166.242L1.232,398.998c-1.514,2.304-1.641,5.253-.332,7.679s3.844,3.938,6.601,3.938h62.998c2.526,0,4.882-1.271,6.269-3.382l31.428-47.846c.025-.036.054-.068.078-.104l31.496-47.951c.036-.054.07-.108.104-.163l31.23-47.546c.057-.079.112-.16.166-.242l62.992-95.902c1.642-2.5,1.642-5.736,0-8.235Z" fill="url(#f)"/><path d="m259.493,314.714c2.525,0,4.881-1.271,6.268-3.382l31.496-47.951c1.642-2.5,1.642-5.736,0-8.235l-31.496-47.951c-1.387-2.111-3.743-3.382-6.268-3.382h0c-2.525,0-4.881,1.271-6.268,3.382l-31.502,47.951c-1.643,2.5-1.643,5.736,0,8.236l31.502,47.951c1.387,2.111,3.743,3.382,6.269,3.382Z" fill="url(#g)"/><path d="m486.246,351.047l-31.496-47.951-31.496-47.951c-.052-.079-.105-.157-.16-.233l-94.341-143.62c-1.387-2.111-3.743-3.382-6.269-3.382s-4.881,1.271-6.268,3.382l-31.496,47.951c-1.642,2.5-1.642,5.736,0,8.236l60.292,91.783-60.293,91.779c-.04.061-.079.122-.117.184l-31.379,47.767c-.803,1.223-1.231,2.66-1.231,4.123,0,4.142,3.358,7.5,7.5,7.5h62.999c2.68,0,5.033-1.409,6.359-3.525l56.633-86.217,56.729,86.359c1.387,2.111,3.743,3.382,6.269,3.382s4.882-1.271,6.269-3.382l31.496-47.951c1.642-2.5,1.642-5.736,0-8.235Z" fill="url(#h)"/></g></g></svg>