<?xml version="1.0" encoding="utf-8"?>
<!-- Generator: Adobe Illustrator 27.2.0, SVG Export Plug-In . SVG Version: 6.00 Build 0)  -->
<svg version="1.1" id="Capa_1" xmlns="http://www.w3.org/2000/svg" xmlns:xlink="http://www.w3.org/1999/xlink" x="0px" y="0px"
	 viewBox="0 0 31.9 32" style="enable-background:new 0 0 31.9 32;" xml:space="preserve">
<style type="text/css">
	.st0{fill:url(#SVGID_1_);}
	.st1{fill:url(#SVGID_00000121992226622866077380000012776171247535965592_);}
	.st2{fill:url(#SVGID_00000070798078837710586370000001524851571023835553_);}
	.st3{fill:url(#SVGID_00000054963820456210228510000014943126898351417781_);}
</style>
<g id="d">
	<g>
		
			<linearGradient id="SVGID_1_" gradientUnits="userSpaceOnUse" x1="-3.9705" y1="11.0792" x2="16.836" y2="26.9731" gradientTransform="matrix(1 0 0 -1 0 34)">
			<stop  offset="0" style="stop-color:#00D4FF"/>
			<stop  offset="1" style="stop-color:#9333EA"/>
		</linearGradient>
		<path class="st0" d="M16.5,10.2c0.1,0.1,0.2,0.2,0.4,0.2c0.2,0,0.3-0.1,0.4-0.2l2-3C19.4,7.1,19.4,7,19.4,7c0-0.1,0-0.2-0.1-0.3
			l-2-3c-0.1-0.1-0.2-0.2-0.4-0.2l0,0c-0.2,0-0.3,0.1-0.4,0.2l-2,3c-0.1,0.2-0.1,0.4,0,0.5L16.5,10.2L16.5,10.2z"/>
		
			<linearGradient id="SVGID_00000138563980101351818340000003070797978371832471_" gradientUnits="userSpaceOnUse" x1="-1.0721" y1="7.285" x2="19.7344" y2="23.1789" gradientTransform="matrix(1 0 0 -1 0 34)">
			<stop  offset="0" style="stop-color:#00D4FF"/>
			<stop  offset="1" style="stop-color:#9333EA"/>
		</linearGradient>
		<path style="fill:url(#SVGID_00000138563980101351818340000003070797978371832471_);" d="M15.3,12.7l-2-3
			c-0.1-0.1-0.2-0.2-0.4-0.2s-0.3,0.1-0.4,0.2l-2,3c0,0,0,0,0,0l-4,6c0,0,0,0,0,0l-2,3l-2,3c0,0,0,0,0,0l-2,3
			c-0.1,0.1-0.1,0.3,0,0.5c0.1,0.2,0.2,0.2,0.4,0.2h4c0.2,0,0.3-0.1,0.4-0.2l2-3c0,0,0,0,0,0l2-3c0,0,0,0,0,0l2-3c0,0,0,0,0,0l4-6
			C15.4,13.1,15.4,12.9,15.3,12.7L15.3,12.7z"/>
		
			<linearGradient id="SVGID_00000022539027898733794780000011245928867436597649_" gradientUnits="userSpaceOnUse" x1="1.8474" y1="3.4631" x2="22.6539" y2="19.357" gradientTransform="matrix(1 0 0 -1 0 34)">
			<stop  offset="0" style="stop-color:#00D4FF"/>
			<stop  offset="1" style="stop-color:#9333EA"/>
		</linearGradient>
		<path style="fill:url(#SVGID_00000022539027898733794780000011245928867436597649_);" d="M16.9,22.5c0.2,0,0.3-0.1,0.4-0.2l2-3
			c0.1-0.2,0.1-0.4,0-0.5l-2-3c-0.1-0.1-0.2-0.2-0.4-0.2l0,0c-0.2,0-0.3,0.1-0.4,0.2l-2,3c-0.1,0.2-0.1,0.4,0,0.5l2,3
			C16.6,22.4,16.8,22.5,16.9,22.5L16.9,22.5z"/>
		
			<linearGradient id="SVGID_00000085218223786187107520000014247674035692977034_" gradientUnits="userSpaceOnUse" x1="4.7667" y1="-0.3585" x2="25.5732" y2="15.5354" gradientTransform="matrix(1 0 0 -1 0 34)">
			<stop  offset="0" style="stop-color:#00D4FF"/>
			<stop  offset="1" style="stop-color:#9333EA"/>
		</linearGradient>
		<path style="fill:url(#SVGID_00000085218223786187107520000014247674035692977034_);" d="M31.2,24.8l-2-3l-2-3c0,0,0,0,0,0l-5.9-9
			c-0.1-0.1-0.2-0.2-0.4-0.2s-0.3,0.1-0.4,0.2l-2,3c-0.1,0.2-0.1,0.4,0,0.5l3.8,5.8l-3.8,5.8c0,0,0,0,0,0l-2,3
			c-0.1,0.1-0.1,0.2-0.1,0.3c0,0.3,0.2,0.5,0.5,0.5h4c0.2,0,0.3-0.1,0.4-0.2l3.6-5.4l3.6,5.4c0.1,0.1,0.2,0.2,0.4,0.2
			s0.3-0.1,0.4-0.2l2-3C31.3,25.1,31.3,24.9,31.2,24.8L31.2,24.8z"/>
	</g>
</g>
</svg>
